#include "pitches.h"

const int BTS_DNA_WHISTLE_LEN = 21;
const int BTS_DNA_WHISTLE[BTS_DNA_WHISTLE_LEN][2] = {
  { NOTE_D5,  6 },
  { NOTE_C5,  6 },
  { NOTE_D5,  6 },
  { NOTE_D5,  6 },
  { 0,        4 },
  { NOTE_A5,  6 },
  { NOTE_AS5, 6 },
  { NOTE_C6,  6 },
  { NOTE_AS5, 6 },
  { NOTE_A5,  4 },

  {0,         2 },

  { NOTE_D5,  6 },
  { NOTE_C5,  6 },
  { NOTE_D5,  6 },
  { NOTE_D5,  6 },
  { 0,        4 },
  { NOTE_A5,  6 },
  { NOTE_AS5, 6 },
  { NOTE_C6,  6 },
  { NOTE_AS5, 6 },
  { NOTE_A5,  4 }
};

const int POKEMON_CENTER_LEN = 8;
const int POKEMON_CENTER[POKEMON_CENTER_LEN][2] = {
  { NOTE_C5,  4 },
  { NOTE_G4,  4 },
  { NOTE_C5,  4 },
  { NOTE_G5,  2 },
  { NOTE_F5,  2 },
  { NOTE_E5,  4 },
  { NOTE_D5,  4 },
  { NOTE_B4,  1 }
};

const int KK_BOSA_LEN = 29;
const int KK_BOSA[KK_BOSA_LEN][2] = {
  { NOTE_FS4, 1 },
  { NOTE_D4,  5 },
  { NOTE_B3,  5 },
  { NOTE_D4,  2 },
  { 0,        2 },
  { NOTE_B3,  5 },
  { NOTE_D4,  5 },
  { NOTE_E4,  5 },
  { NOTE_FS4, 1 },
  { 0,        4 },
  { NOTE_D4,  5 },
  { NOTE_B3,  5 },
  { NOTE_D4,  1 },
  { 0,        4 },
  { NOTE_D4,  4 },
  { 0,        16 },
  { NOTE_CS4, 4 },
  { 0,        16 },
  { NOTE_C4,  1 },
  { NOTE_C4,  5 },
  { NOTE_E4,  5 },
  { NOTE_G4,  5 },
  { NOTE_FS4, 2 },
  { 0,        8 },
  { NOTE_D4,  5 },
  { NOTE_A3,  2 },
  { 0,        8 },
  { NOTE_D4,  5 },
  { NOTE_B3,  1 }
};

const int COFFIN_DANCE_LEN = 23;
const int COFFIN_DANCE[COFFIN_DANCE_LEN][2] = {
  { NOTE_D4,  3 },
  
  { NOTE_D4,  6 },
  { NOTE_A4,  6 },
  { NOTE_G4,  3 },
  { NOTE_F4,  3 },
  { NOTE_E4,  3 },

  { NOTE_E4,  6 },
  { NOTE_E4,  6 },
  { NOTE_G4,  3 },

  { NOTE_F4,  6 },
  { NOTE_E4,  6 },
  { NOTE_D4,  2 },

  { NOTE_F5,  6 },
  { NOTE_E5,  6 },
  { NOTE_F5,  6 },
  { NOTE_E5,  6 },
  { NOTE_F5,  6 },
  { NOTE_D4,  2 },

  { NOTE_F5,  6 },
  { NOTE_E5,  6 },
  { NOTE_F5,  6 },
  { NOTE_E5,  6 },
  { NOTE_F5,  6 }
};

const int HIKARU_NARA_LEN = 27;
const int HIKARU_NARA[HIKARU_NARA_LEN][2] = {
  { NOTE_A4,  6 },
  { NOTE_GS4, 6 },
  { NOTE_A4,  6 },
  { NOTE_B4,  2 },
  { NOTE_A4,  3 },
  
  { NOTE_A4,  6 },
  { NOTE_GS4, 6 },
  { NOTE_A4,  6 },
  { NOTE_B4,  2 },
  { NOTE_A4,  3 },
  
  { NOTE_D5,  3 },
  { NOTE_DS5, 6 },
  { NOTE_D5,  2 },
  { NOTE_C5,  6 },
  { NOTE_AS4, 2 },

  {0,         4 },
  
  { NOTE_AS4, 3 },
  { NOTE_A4,  3 },
  { NOTE_G4,  3 },

  { NOTE_DS4, 3 },
  { NOTE_F4,  3 },
  { NOTE_G4,  3 },
  { NOTE_AS4, 3 },
  { NOTE_A4,  6 },
  { NOTE_G4,  2 },
  { NOTE_A4,  6 },
  { NOTE_AS4, 1 }
};

const int A_CRUEL_ANGELS_THESIS_LEN = 22;
const int A_CRUEL_ANGELS_THESIS[A_CRUEL_ANGELS_THESIS_LEN][2] = {
  { NOTE_C4,  2 },
  { NOTE_DS4, 2 },
  { NOTE_F4,  3 },
  { NOTE_DS4, 3 },
  { NOTE_F4,  4 },

  { NOTE_F4,  2 },
  { NOTE_AS4, 4 },
  { NOTE_GS4, 4 },
  { NOTE_G4,  5 },
  { NOTE_F4,  4 },
  { NOTE_G4,  2 },

  { NOTE_G4,  2 },
  { NOTE_AS4, 2 },
  { NOTE_C5,  3 },
  { NOTE_F4,  3 },
  { NOTE_DS4, 4 },
  { NOTE_AS4, 4 },
  { NOTE_AS4, 4 },
  { NOTE_G4,  5 },
  { NOTE_AS4, 4 },
  { NOTE_AS4, 3 },
  { NOTE_C5,  1 }
};
